<svg xmlns:xlink="http://www.w3.org/1999/xlink" xmlns="http://www.w3.org/2000/svg" class="icon icon-logo" viewBox="0 0 141 50" preserveAspectRatio="none" width="141" height="50"><defs><symbol id="icon-logo" width="141" height="50" viewBox="0 0 181 64">
                <path d="M17.5946 3.16991C13.4324 3.16991 9.87908 4.64172 6.93478 7.57794C3.99049 10.5142 2.52221 14.0578 2.52221 18.2088C2.52221 22.3601 3.99049 25.9037 6.93478 28.84C9.87908 31.7762 13.4324 33.248 17.5946 33.248C21.765 33.248 25.3183 31.7762 28.2626 28.84C31.2069 25.9037 32.6748 22.3601 32.6748 18.2088C32.6748 14.0578 31.2065 10.5142 28.2626 7.57794C25.3183 4.64172 21.765 3.16991 17.5946 3.16991ZM17.5946 35.7561C12.7449 35.7561 8.59807 34.0346 5.15427 30.6003C1.71821 27.1733 0 23.0457 0 18.2091C0 13.3726 1.71821 9.24493 5.15427 5.81799C8.59844 2.38326 12.7452 0.6622 17.5946 0.6622C22.4444 0.6622 26.5912 2.38326 30.0195 5.81799C33.4714 9.24493 35.1893 13.3726 35.1893 18.2091C35.1893 23.0457 33.4711 27.1733 30.0195 30.6003C26.5912 34.035 22.4444 35.7561 17.5946 35.7561ZM42.4053 31.9943V4.38468H53.815C57.6337 4.38468 60.8902 5.73983 63.5846 8.44235C66.2867 11.1527 67.6377 14.4081 67.6377 18.2088C67.6377 22.0094 66.2867 25.2571 63.5846 27.9518C60.8902 30.6466 57.6337 31.9939 53.815 31.9939H42.4053V31.9943ZM39.8827 1.89253V34.4787H53.815C58.3212 34.4787 62.1709 32.8899 65.3728 29.7122C68.5593 26.5267 70.1522 22.6949 70.1522 18.2088C70.1522 13.7226 68.5593 9.88306 65.3728 6.68981C62.1709 3.48879 58.3208 1.89217 53.815 1.89217H39.8827V1.89253ZM87.7236 0L69.9259 34.4787H72.7371L76.9465 26.3322H98.5007L102.71 34.4787H105.522L87.724 0H87.7236ZM87.7236 5.45169L97.2201 23.8475H78.2275L87.724 5.45169H87.7236ZM111.449 32.8821C111.449 33.3806 111.277 33.8169 110.926 34.1828C110.574 34.5331 110.144 34.7046 109.645 34.7046C109.137 34.7046 108.707 34.5331 108.341 34.1828C107.989 33.8169 107.818 33.3806 107.818 32.8821C107.818 32.3758 107.989 31.9554 108.341 31.6047C108.708 31.2388 109.137 31.0518 109.645 31.0518C110.145 31.0518 110.574 31.2388 110.926 31.6047C111.277 31.955 111.449 32.3758 111.449 32.8821ZM145.381 1.89253L130.394 30.234L115.408 1.89253H112.597L130.394 35.6857L148.192 1.89253H145.381ZM153.347 34.5254V15.5844C153.347 12.1186 154.573 9.15901 157.025 6.71352C159.485 4.26026 162.445 3.03732 165.928 3.03732C169.387 3.03732 172.347 4.26026 174.807 6.71352C177.275 9.15901 178.509 12.1186 178.509 15.5844V34.5254H181V15.5844C181 11.433 179.532 7.88163 176.588 4.92986C173.628 1.99364 170.075 0.529608 165.928 0.529608C161.766 0.529608 158.204 1.99364 155.245 4.92986C152.3 7.88163 150.824 11.433 150.824 15.5844V34.5254H153.347Z" fill="#373435"></path>
                <path d="M7.64872 44.7175C5.84756 44.7175 4.30998 45.3656 3.03597 46.6585C1.76196 47.9515 1.12681 49.5118 1.12681 51.3395C1.12681 53.1672 1.76196 54.7276 3.03597 56.0205C4.30998 57.3134 5.84756 57.9616 7.64872 57.9616C9.45319 57.9616 10.9908 57.3134 12.2648 56.0205C13.5388 54.7276 14.1739 53.1672 14.1739 51.3395C14.1739 49.5118 13.5388 47.9515 12.2648 46.6585C10.9908 45.3656 9.45319 44.7175 7.64872 44.7175ZM7.64872 59.0656C5.55007 59.0656 3.75592 58.3078 2.26589 56.7953C0.778815 55.2864 0.0356445 53.4691 0.0356445 51.3395C0.0356445 49.2099 0.779184 47.3926 2.26589 45.8837C3.75592 44.3715 5.55044 43.6134 7.64872 43.6134C9.74699 43.6134 11.5415 44.3712 13.0249 45.8837C14.5186 47.3926 15.2622 49.2099 15.2622 51.3395C15.2622 53.4691 14.5186 55.2864 13.0249 56.7953C11.5415 58.3075 9.74699 59.0656 7.64872 59.0656ZM23.8079 43.6031C22.0137 43.6031 20.4795 44.2512 19.2055 45.5441C17.9315 46.837 17.293 48.3937 17.293 50.2147V58.5034H18.3845V50.2147C18.3845 48.6955 18.9153 47.3959 19.9763 46.3156C21.0339 45.2389 22.3112 44.7004 23.8083 44.7004C24.3763 44.7004 24.9337 44.7897 25.4811 44.9712V43.8256C24.9337 43.6782 24.3763 43.6027 23.8083 43.6027L23.8079 43.6031ZM40.4607 51.3395C40.4607 53.1672 39.8251 54.7276 38.5511 56.0205C37.2771 57.3134 35.7395 57.9616 33.9354 57.9616C32.1343 57.9616 30.5967 57.3134 29.3227 56.0205C28.0487 54.7276 27.4135 53.1672 27.4135 51.3395C27.4135 49.5118 28.0487 47.9515 29.3227 46.6585C30.5967 45.3656 32.1343 44.7175 33.9354 44.7175C35.7395 44.7175 37.2771 45.3656 38.5511 46.6585C39.8251 47.9515 40.4607 49.5118 40.4607 51.3395ZM40.4607 47.3822C39.7813 46.2367 38.8722 45.3282 37.7368 44.6593C36.5642 43.9631 35.2968 43.6134 33.9354 43.6134C31.8368 43.6134 30.0423 44.3712 28.5522 45.8837C27.0652 47.3926 26.322 49.2099 26.322 51.3395C26.322 53.4691 27.0655 55.2901 28.5522 56.8057C30.0423 58.3112 31.8368 59.0656 33.9354 59.0656C36.0337 59.0656 37.8282 58.3112 39.3113 56.8057C40.805 55.2898 41.5485 53.4691 41.5485 51.3395V40.1465H40.4603V47.3822H40.4607ZM44.7048 50.6262C44.8769 48.9596 45.5799 47.5603 46.8134 46.4252C48.0568 45.2867 49.5133 44.7175 51.1894 44.7175C52.8586 44.7175 54.3184 45.2867 55.5655 46.4252C56.7957 47.5603 57.4983 48.9596 57.6741 50.6262H44.7048ZM51.1894 43.6134C49.0908 43.6134 47.2966 44.3712 45.8066 45.8837C44.3195 47.3926 43.5764 49.2099 43.5764 51.3395C43.5764 53.4691 44.3199 55.2864 45.8066 56.7953C47.2966 58.3075 49.0912 59.0656 51.1894 59.0656C52.8081 59.0656 54.2712 58.5856 55.5858 57.6286C56.8664 56.6994 57.7792 55.482 58.3196 53.9831H57.1606C56.6537 55.1661 55.8663 56.1231 54.8054 56.8464C53.7072 57.5871 52.504 57.9608 51.1898 57.9608C49.4631 57.9608 47.9661 57.3571 46.7054 56.1501C45.4586 54.9464 44.7862 53.472 44.6882 51.7299H58.783L58.7929 51.5414L58.8033 51.3391C58.8033 51.1403 58.7896 50.9003 58.766 50.6258C58.5869 48.6574 57.7759 46.9978 56.3297 45.6534C54.8765 44.2919 53.1635 43.6131 51.1898 43.6131L51.1894 43.6134ZM67.3486 43.6031C65.5545 43.6031 64.0202 44.2512 62.7462 45.5441C61.4722 46.837 60.8337 48.3937 60.8337 50.2147V58.5034H61.9252V50.2147C61.9252 48.6955 62.4557 47.3959 63.5166 46.3156C64.5746 45.2389 65.852 44.7004 67.3486 44.7004C67.9163 44.7004 68.4741 44.7897 69.0215 44.9712V43.8256C68.4741 43.6782 67.9163 43.6027 67.3486 43.6027V43.6031ZM71.8327 57.8001C71.8327 58.0197 71.7582 58.2116 71.6064 58.3727C71.4541 58.5271 71.2683 58.6023 71.0519 58.6023C70.8322 58.6023 70.6464 58.5267 70.4876 58.3727C70.3357 58.2116 70.2612 58.0193 70.2612 57.8001C70.2612 57.5771 70.3357 57.3919 70.4876 57.2375C70.6464 57.0764 70.8322 56.9942 71.0519 56.9942C71.2683 56.9942 71.4541 57.0764 71.6064 57.2375C71.7582 57.3919 71.8327 57.5771 71.8327 57.8001ZM83.1565 57.4571L83.7514 56.5345C85.2009 57.4845 86.5697 57.9612 87.857 57.9612C89.0462 57.9612 89.9759 57.6456 90.6516 57.0145C91.2362 56.459 91.53 55.7664 91.53 54.9364C91.53 53.925 91.0906 53.0917 90.2155 52.4332C89.6784 52.0388 88.6849 51.5621 87.2351 50.9962L86.4712 50.6977C86.1874 50.581 85.9375 50.4781 85.7211 50.3855C85.177 50.1384 84.7342 49.8814 84.3829 49.6207C83.5045 48.9796 83.0647 48.1737 83.0647 47.21C83.0647 45.9515 83.5819 44.9982 84.6089 44.3567C85.3897 43.8664 86.295 43.6231 87.3327 43.6231C88.529 43.6231 89.5866 43.7808 90.5126 44.0964C90.8068 44.189 91.0737 44.2953 91.3136 44.4186C91.3848 44.4564 91.4523 44.4975 91.5094 44.5386C91.5363 44.5523 91.5566 44.5627 91.5702 44.566L91.5905 44.5867H91.6008L90.9756 45.4919L90.9657 45.4815C90.952 45.4745 90.9351 45.4678 90.9181 45.4608C90.8709 45.4334 90.8167 45.406 90.7592 45.3715C90.5598 45.2789 90.3368 45.1897 90.0868 45.1108C89.2861 44.8538 88.3701 44.7267 87.3327 44.7267H87.106C86.9744 44.7404 86.8391 44.7541 86.7005 44.7678C86.302 44.8297 85.9437 44.9256 85.6193 45.0593C84.6428 45.4741 84.1562 46.1911 84.1562 47.2096C84.1562 47.82 84.4637 48.3414 85.0752 48.7766C85.5246 49.0922 86.3728 49.4899 87.6196 49.9733L88.0656 50.1414L88.5117 50.3232C88.8394 50.4569 89.1335 50.584 89.3901 50.7073C90.0389 51.0058 90.5727 51.3247 90.9952 51.6606C92.0764 52.5043 92.6205 53.5946 92.6205 54.9357C92.6205 56.0398 92.2319 56.9797 91.4615 57.7479C90.583 58.6256 89.3835 59.0649 87.8558 59.0649C86.3588 59.0649 84.7906 58.5301 83.1554 57.4564L83.1565 57.4571ZM101.816 44.7175C100.015 44.7175 98.4777 45.3656 97.2037 46.6585C95.9297 47.9515 95.2946 49.5118 95.2946 51.3395C95.2946 53.1672 95.9297 54.7276 97.2037 56.0205C98.4777 57.3134 100.015 57.9616 101.816 57.9616C103.621 57.9616 105.158 57.3134 106.433 56.0205C107.707 54.7276 108.342 53.1672 108.342 51.3395C108.342 49.5118 107.706 47.9515 106.433 46.6585C105.159 45.3656 103.621 44.7175 101.816 44.7175ZM101.816 59.0656C99.7178 59.0656 97.9237 58.3078 96.4333 56.7953C94.9466 55.2864 94.203 53.4691 94.203 51.3395C94.203 49.2099 94.9466 47.3926 96.4333 45.8837C97.9237 44.3715 99.7178 43.6134 101.816 43.6134C103.915 43.6134 105.709 44.3712 107.193 45.8837C108.686 47.3926 109.43 49.2099 109.43 51.3395C109.43 53.4691 108.686 55.2864 107.193 56.7953C105.709 58.3075 103.915 59.0656 101.816 59.0656ZM122.089 50.6262C122.261 48.9596 122.964 47.5603 124.197 46.4252C125.441 45.2867 126.897 44.7175 128.573 44.7175C130.242 44.7175 131.703 45.2867 132.949 46.4252C134.179 47.5603 134.882 48.9596 135.058 50.6262H122.089H122.089ZM128.573 43.6134C126.475 43.6134 124.68 44.3712 123.19 45.8837C121.703 47.3926 120.96 49.2099 120.96 51.3395C120.96 53.4691 121.704 55.2864 123.19 56.7953C124.68 58.3075 126.475 59.0656 128.573 59.0656C130.192 59.0656 131.655 58.5856 132.97 57.6286C134.25 56.6994 135.163 55.482 135.703 53.9831H134.544C134.037 55.1661 133.25 56.1231 132.189 56.8464C131.091 57.5871 129.888 57.9608 128.574 57.9608C126.847 57.9608 125.35 57.3571 124.089 56.1501C122.842 54.9464 122.17 53.472 122.072 51.7299H136.166L136.176 51.5414L136.187 51.3391C136.187 51.1403 136.173 50.9003 136.149 50.6258C135.971 48.6574 135.159 46.9978 133.713 45.6534C132.26 44.2919 130.547 43.6131 128.573 43.6131V43.6134ZM151.91 51.3395C151.91 53.1672 151.275 54.7276 150.001 56.0205C148.727 57.3134 147.189 57.9616 145.385 57.9616C143.584 57.9616 142.046 57.3134 140.772 56.0205C139.498 54.7276 138.863 53.1672 138.863 51.3395C138.863 49.5118 139.498 47.9515 140.772 46.6585C142.046 45.3656 143.583 44.7175 145.385 44.7175C147.189 44.7175 148.727 45.3656 150.001 46.6585C151.275 47.9515 151.91 49.5118 151.91 51.3395ZM151.91 58.5134H152.998V51.3395C152.998 49.2099 152.255 47.3926 150.761 45.8837C149.278 44.3715 147.483 43.6134 145.385 43.6134C143.286 43.6134 141.492 44.3712 140.002 45.8837C138.515 47.3926 137.771 49.2099 137.771 51.3395C137.771 53.4691 138.515 55.2901 140.002 56.8057C141.492 58.3112 143.286 59.0656 145.385 59.0656C146.747 59.0656 148.014 58.7193 149.186 58.0301C150.322 57.3545 151.231 56.4423 151.91 55.2968V58.5134ZM155.117 57.4571L155.711 56.5345C157.161 57.4845 158.53 57.9612 159.817 57.9612C161.007 57.9612 161.936 57.6456 162.612 57.0145C163.196 56.459 163.49 55.7664 163.49 54.9364C163.49 53.925 163.051 53.0917 162.175 52.4332C161.638 52.0388 160.645 51.5621 159.195 50.9962L158.431 50.6977C158.147 50.581 157.897 50.4781 157.681 50.3855C157.137 50.1384 156.694 49.8814 156.343 49.6207C155.464 48.9796 155.025 48.1737 155.025 47.21C155.025 45.9515 155.542 44.9982 156.569 44.3567C157.35 43.8664 158.255 43.6231 159.293 43.6231C160.489 43.6231 161.547 43.7808 162.473 44.0964C162.766 44.189 163.034 44.2953 163.273 44.4186C163.344 44.4564 163.412 44.4975 163.469 44.5386C163.496 44.5523 163.517 44.5627 163.53 44.566L163.551 44.5867H163.561L162.936 45.4919L162.925 45.4815C162.912 45.4745 162.895 45.4678 162.878 45.4608C162.831 45.4334 162.777 45.406 162.719 45.3715C162.52 45.2789 162.297 45.1897 162.047 45.1108C161.246 44.8538 160.33 44.7267 159.293 44.7267H159.066C158.935 44.7404 158.8 44.7541 158.661 44.7678C158.262 44.8297 157.904 44.9256 157.58 45.0593C156.603 45.4741 156.117 46.1911 156.117 47.2096C156.117 47.82 156.424 48.3414 157.036 48.7766C157.485 49.0922 158.333 49.4899 159.58 49.9733L160.026 50.1414L160.472 50.3232C160.8 50.4569 161.094 50.584 161.35 50.7073C161.999 51.0058 162.533 51.3247 162.956 51.6606C164.037 52.5043 164.581 53.5946 164.581 54.9357C164.581 56.0398 164.192 56.9797 163.422 57.7479C162.543 58.6256 161.343 59.0649 159.816 59.0649C158.319 59.0649 156.751 58.5301 155.116 57.4564L155.117 57.4571ZM179.866 44.1549V51.8125C179.866 53.5135 179.268 54.9676 178.075 56.1712C176.886 57.3782 175.456 57.9819 173.787 57.9819C172.104 57.9819 170.668 57.3749 169.481 56.1609C168.292 54.9572 167.701 53.5032 167.701 51.8021V44.1549H166.609V51.8021C166.609 53.8046 167.308 55.5194 168.708 56.946C170.113 58.3656 171.806 59.0756 173.787 59.0756C175.047 59.0756 176.223 58.7601 177.311 58.1327C178.369 57.5153 179.22 56.682 179.866 55.6294V56.3838C179.866 58.1397 179.23 59.6656 177.957 60.9652C176.683 62.2444 175.145 62.8822 173.341 62.8822C171.54 62.8822 170.002 62.2444 168.728 60.9652C168.437 60.6567 168.187 60.3515 167.978 60.0496L167.116 60.7422C167.353 61.0781 167.633 61.4074 167.958 61.7263C169.441 63.2422 171.235 63.9999 173.341 63.9999C175.443 63.9999 177.234 63.2422 178.717 61.7263C180.183 60.2482 180.93 58.4786 180.954 56.4246V44.1545H179.866L179.866 44.1549Z" fill="#373435"></path>
            </symbol></defs>
                                            <use xlink:href="#icon-logo" stroke="#007BFF" fill="#007BFF" stroke-width="0px"></use>
                                        </svg>